<?xml version="1.0" encoding="utf-8"?>
<!-- Generator: Adobe Illustrator 22.1.0, SVG Export Plug-In . SVG Version: 6.00 Build 0)  -->
<svg version="1.1" id="Layer_1" xmlns="http://www.w3.org/2000/svg" xmlns:xlink="http://www.w3.org/1999/xlink" x="0px" y="0px"
	 viewBox="0 0 420 93" style="enable-background:new 0 0 420 93;" xml:space="preserve">
<style type="text/css">
	.st0{fill:#70C041;}
	.st1{fill:#50822F;}
	.st2{fill:#6E9953;}
	.st3{fill:#F28123;}
</style>
<g>
	<g>
		<path class="st0" d="M180,36.7c0.1-1.3,0.2-2.6,0.2-3.9c0-0.5-0.4-0.8-0.8-0.8s-0.8,0.4-0.8,0.8c0,1.2,0,2.5-0.2,3.8
			c-0.3,3.3-1.9,6-4.3,7.2c1.2-3.4,1.9-7.3,2.1-11.4v0c0-0.4-0.3-0.8-0.7-0.8c-0.5,0-0.8,0.3-0.9,0.8c-0.2,3.2-0.7,6.2-1.4,8.9
			c-0.6-2.7-0.9-5.5-0.9-8.4c0-0.5-0.4-0.8-0.8-0.8s-0.8,0.4-0.8,0.8c0,3.9,0.5,7.7,1.6,11.3c0,0.1-0.1,0.2-0.2,0.4
			c-1.1,0.2-2.1,0.2-3.2,0c0-0.1-0.1-0.2-0.2-0.4c1-3.6,1.6-7.4,1.6-11.3c0-0.5-0.4-0.8-0.8-0.8s-0.8,0.4-0.8,0.8
			c0,2.9-0.3,5.7-0.9,8.4c-0.6-2.7-1.1-5.7-1.3-8.9c0-0.5-0.4-0.8-0.9-0.7c-0.4,0-0.7,0.4-0.7,0.8v0c0.2,4.2,0.9,8,2.1,11.4
			c-2.4-1.2-4-4-4.3-7.2c-0.1-1.2-0.2-2.5-0.2-3.8c0-0.5-0.4-0.8-0.8-0.8s-0.8,0.4-0.8,0.8c0,1.3,0.1,2.6,0.2,3.9
			c0.4,4,2.6,7.3,5.7,8.7l-5,0c-0.5,0-0.8,0.4-0.8,0.8s0.4,0.8,0.8,0.8h17.8c0.5,0,0.8-0.4,0.8-0.8s-0.4-0.8-0.8-0.8h-5
			C177.4,44.1,179.6,40.7,180,36.7L180,36.7z"/>
	</g>
	<g>
		<path class="st1" d="M193,44.5c0.1-1.3,0.2-2.6,0.2-3.9c0-0.5-0.4-0.8-0.8-0.8s-0.8,0.4-0.8,0.8c0,1.2,0,2.5-0.2,3.8
			c-0.3,3.3-1.9,6-4.3,7.2c1.2-3.4,1.9-7.3,2.1-11.4v0c0-0.4-0.3-0.8-0.7-0.8c-0.5,0-0.8,0.3-0.9,0.8c-0.2,3.2-0.7,6.2-1.4,8.9
			c-0.6-2.7-0.9-5.5-0.9-8.4c0-0.5-0.4-0.8-0.8-0.8s-0.8,0.4-0.8,0.8c0,3.9,0.5,7.7,1.6,11.3c0,0.1-0.1,0.2-0.2,0.4
			c-1.1,0.2-2.1,0.2-3.2,0c0-0.1-0.1-0.2-0.2-0.4c1-3.6,1.6-7.4,1.6-11.3c0-0.5-0.4-0.8-0.8-0.8s-0.8,0.4-0.8,0.8
			c0,2.9-0.3,5.7-0.9,8.4c-0.6-2.7-1.1-5.7-1.3-8.9c0-0.5-0.4-0.8-0.9-0.7c-0.4,0-0.7,0.4-0.7,0.8v0c0.2,4.2,0.9,8,2.1,11.4
			c-2.4-1.2-4-4-4.3-7.2c-0.1-1.2-0.2-2.5-0.2-3.8c0-0.5-0.4-0.8-0.8-0.8c-0.5,0-0.8,0.4-0.8,0.8c0,1.3,0.1,2.6,0.2,3.9
			c0.4,4,2.6,7.3,5.7,8.7l-5,0c-0.5,0-0.8,0.4-0.8,0.8c0,0.5,0.4,0.8,0.8,0.8h17.8c0.5,0,0.8-0.4,0.8-0.8c0-0.5-0.4-0.8-0.8-0.8h-5
			C190.5,51.9,192.6,48.6,193,44.5L193,44.5z"/>
	</g>
	<g>
		<path class="st2" d="M166.6,44.5c0.1-1.3,0.2-2.6,0.2-3.9c0-0.5-0.4-0.8-0.8-0.8s-0.8,0.4-0.8,0.8c0,1.2,0,2.5-0.2,3.8
			c-0.3,3.3-1.9,6-4.3,7.2c1.2-3.4,1.9-7.3,2.1-11.4v0c0-0.4-0.3-0.8-0.7-0.8c-0.5,0-0.8,0.3-0.9,0.8c-0.2,3.2-0.7,6.2-1.4,8.9
			c-0.6-2.7-0.9-5.5-0.9-8.4c0-0.5-0.4-0.8-0.8-0.8s-0.8,0.4-0.8,0.8c0,3.9,0.5,7.7,1.6,11.3c0,0.1-0.1,0.2-0.2,0.4
			c-1.1,0.2-2.1,0.2-3.2,0c0-0.1-0.1-0.2-0.2-0.4c1-3.6,1.6-7.4,1.6-11.3c0-0.5-0.4-0.8-0.8-0.8s-0.8,0.4-0.8,0.8
			c0,2.9-0.3,5.7-0.9,8.4c-0.6-2.7-1.1-5.7-1.3-8.9c0-0.5-0.4-0.8-0.9-0.7c-0.4,0-0.7,0.4-0.7,0.8v0c0.2,4.2,0.9,8,2.1,11.4
			c-2.4-1.2-4-4-4.3-7.2c-0.1-1.2-0.2-2.5-0.2-3.8c0-0.5-0.4-0.8-0.8-0.8s-0.8,0.4-0.8,0.8c0,1.3,0.1,2.6,0.2,3.9
			c0.4,4,2.6,7.3,5.7,8.7l-5,0c-0.5,0-0.8,0.4-0.8,0.8c0,0.5,0.4,0.8,0.8,0.8H166c0.5,0,0.8-0.4,0.8-0.8c0-0.5-0.4-0.8-0.8-0.8h-5
			C164,51.9,166.2,48.6,166.6,44.5L166.6,44.5z"/>
	</g>
</g>
<g>
	<g>
		<path class="st0" d="M224.6,18.7c0.1-1.3,0.2-2.6,0.2-3.9c0-0.5-0.4-0.8-0.8-0.8s-0.8,0.4-0.8,0.8c0,1.2,0,2.5-0.2,3.8
			c-0.3,3.3-1.9,6-4.3,7.2c1.2-3.4,1.9-7.3,2.1-11.4v0c0-0.4-0.3-0.8-0.7-0.8c-0.5,0-0.8,0.3-0.9,0.8c-0.2,3.2-0.7,6.2-1.4,8.9
			c-0.6-2.7-0.9-5.5-0.9-8.4c0-0.5-0.4-0.8-0.8-0.8s-0.8,0.4-0.8,0.8c0,3.9,0.5,7.7,1.6,11.3c0,0.1-0.1,0.2-0.2,0.4
			c-1.1,0.2-2.1,0.2-3.2,0c0-0.1-0.1-0.2-0.2-0.4c1-3.6,1.6-7.4,1.6-11.3c0-0.5-0.4-0.8-0.8-0.8s-0.8,0.4-0.8,0.8
			c0,2.9-0.3,5.7-0.9,8.4c-0.6-2.7-1.1-5.7-1.3-8.9c0-0.5-0.4-0.8-0.9-0.7c-0.4,0-0.7,0.4-0.7,0.8v0c0.2,4.2,0.9,8,2.1,11.4
			c-2.4-1.2-4-4-4.3-7.2c-0.1-1.2-0.2-2.5-0.2-3.8c0-0.5-0.4-0.8-0.8-0.8c-0.5,0-0.8,0.4-0.8,0.8c0,1.3,0.1,2.6,0.2,3.9
			c0.4,4,2.6,7.3,5.7,8.7l-5,0c-0.5,0-0.8,0.4-0.8,0.8c0,0.5,0.4,0.8,0.8,0.8H224c0.5,0,0.8-0.4,0.8-0.8c0-0.5-0.4-0.8-0.8-0.8h-5
			C222.1,26.1,224.2,22.8,224.6,18.7L224.6,18.7z"/>
	</g>
	<g>
		<path class="st1" d="M237.7,26.6c0.1-1.3,0.2-2.6,0.2-3.9c0-0.5-0.4-0.8-0.8-0.8s-0.8,0.4-0.8,0.8c0,1.2,0,2.5-0.2,3.8
			c-0.3,3.3-1.9,6-4.3,7.2c1.2-3.4,1.9-7.3,2.1-11.4v0c0-0.4-0.3-0.8-0.7-0.8c-0.5,0-0.8,0.3-0.9,0.8c-0.2,3.2-0.7,6.2-1.4,8.9
			c-0.6-2.7-0.9-5.5-0.9-8.4c0-0.5-0.4-0.8-0.8-0.8s-0.8,0.4-0.8,0.8c0,3.9,0.5,7.7,1.6,11.3c0,0.1-0.1,0.2-0.2,0.4
			c-1.1,0.2-2.1,0.2-3.2,0c0-0.1-0.1-0.2-0.2-0.4c1-3.6,1.6-7.4,1.6-11.3c0-0.5-0.4-0.8-0.8-0.8s-0.8,0.4-0.8,0.8
			c0,2.9-0.3,5.7-0.9,8.4c-0.6-2.7-1.1-5.7-1.3-8.9c0-0.5-0.4-0.8-0.9-0.7c-0.4,0-0.7,0.4-0.7,0.8v0c0.2,4.2,0.9,8,2.1,11.4
			c-2.4-1.2-4-4-4.3-7.2c-0.1-1.2-0.2-2.5-0.2-3.8c0-0.5-0.4-0.8-0.8-0.8c-0.5,0-0.8,0.4-0.8,0.8c0,1.3,0.1,2.6,0.2,3.9
			c0.4,4,2.6,7.3,5.7,8.7l-5,0c-0.5,0-0.8,0.4-0.8,0.8c0,0.5,0.4,0.8,0.8,0.8h17.8c0.5,0,0.8-0.4,0.8-0.8c0-0.5-0.4-0.8-0.8-0.8h-5
			C235.1,33.9,237.3,30.6,237.7,26.6L237.7,26.6z"/>
	</g>
	<g>
		<path class="st2" d="M211.3,26.6c0.1-1.3,0.2-2.6,0.2-3.9c0-0.5-0.4-0.8-0.8-0.8s-0.8,0.4-0.8,0.8c0,1.2,0,2.5-0.2,3.8
			c-0.3,3.3-1.9,6-4.3,7.2c1.2-3.4,1.9-7.3,2.1-11.4v0c0-0.4-0.3-0.8-0.7-0.8c-0.5,0-0.8,0.3-0.9,0.8c-0.2,3.2-0.7,6.2-1.4,8.9
			c-0.6-2.7-0.9-5.5-0.9-8.4c0-0.5-0.4-0.8-0.8-0.8s-0.8,0.4-0.8,0.8c0,3.9,0.5,7.7,1.6,11.3c0,0.1-0.1,0.2-0.2,0.4
			c-1.1,0.2-2.1,0.2-3.2,0c0-0.1-0.1-0.2-0.2-0.4c1-3.6,1.6-7.4,1.6-11.3c0-0.5-0.4-0.8-0.8-0.8s-0.8,0.4-0.8,0.8
			c0,2.9-0.3,5.7-0.9,8.4c-0.6-2.7-1.1-5.7-1.3-8.9c0-0.5-0.4-0.8-0.9-0.7c-0.4,0-0.7,0.4-0.7,0.8v0c0.2,4.2,0.9,8,2.1,11.4
			c-2.4-1.2-4-4-4.3-7.2c-0.1-1.2-0.2-2.5-0.2-3.8c0-0.5-0.4-0.8-0.8-0.8c-0.5,0-0.8,0.4-0.8,0.8c0,1.3,0.1,2.6,0.2,3.9
			c0.4,4,2.6,7.3,5.7,8.7l-5,0c-0.5,0-0.8,0.4-0.8,0.8c0,0.5,0.4,0.8,0.8,0.8h17.8c0.5,0,0.8-0.4,0.8-0.8c0-0.5-0.4-0.8-0.8-0.8h-5
			C208.7,33.9,210.9,30.6,211.3,26.6L211.3,26.6z"/>
	</g>
</g>
<g>
	<g>
		<path class="st0" d="M269.2,36.7c0.1-1.3,0.2-2.6,0.2-3.9c0-0.5-0.4-0.8-0.8-0.8c-0.5,0-0.8,0.4-0.8,0.8c0,1.2,0,2.5-0.2,3.8
			c-0.3,3.3-1.9,6-4.3,7.2c1.2-3.4,1.9-7.3,2.1-11.4v0c0-0.4-0.3-0.8-0.7-0.8c-0.5,0-0.8,0.3-0.9,0.8c-0.2,3.2-0.7,6.2-1.4,8.9
			c-0.6-2.7-0.9-5.5-0.9-8.4c0-0.5-0.4-0.8-0.8-0.8c-0.5,0-0.8,0.4-0.8,0.8c0,3.9,0.5,7.7,1.6,11.3c0,0.1-0.1,0.2-0.2,0.4
			c-1.1,0.2-2.1,0.2-3.2,0c0-0.1-0.1-0.2-0.2-0.4c1-3.6,1.6-7.4,1.6-11.3c0-0.5-0.4-0.8-0.8-0.8c-0.5,0-0.8,0.4-0.8,0.8
			c0,2.9-0.3,5.7-0.9,8.4c-0.6-2.7-1.1-5.7-1.3-8.9c0-0.5-0.4-0.8-0.9-0.7c-0.4,0-0.7,0.4-0.7,0.8v0c0.2,4.2,0.9,8,2.1,11.4
			c-2.4-1.2-4-4-4.3-7.2c-0.1-1.2-0.2-2.5-0.2-3.8c0-0.5-0.4-0.8-0.8-0.8s-0.8,0.4-0.8,0.8c0,1.3,0.1,2.6,0.2,3.9
			c0.4,4,2.6,7.3,5.7,8.7l-5,0c-0.5,0-0.8,0.4-0.8,0.8s0.4,0.8,0.8,0.8h17.8c0.5,0,0.8-0.4,0.8-0.8s-0.4-0.8-0.8-0.8h-5
			C266.6,44.1,268.8,40.7,269.2,36.7L269.2,36.7z"/>
	</g>
	<g>
		<path class="st1" d="M282.2,44.5c0.1-1.3,0.2-2.6,0.2-3.9c0-0.5-0.4-0.8-0.8-0.8c-0.5,0-0.8,0.4-0.8,0.8c0,1.2,0,2.5-0.2,3.8
			c-0.3,3.3-1.9,6-4.3,7.2c1.2-3.4,1.9-7.3,2.1-11.4v0c0-0.4-0.3-0.8-0.7-0.8c-0.5,0-0.8,0.3-0.9,0.8c-0.2,3.2-0.7,6.2-1.4,8.9
			c-0.6-2.7-0.9-5.5-0.9-8.4c0-0.5-0.4-0.8-0.8-0.8c-0.5,0-0.8,0.4-0.8,0.8c0,3.9,0.5,7.7,1.6,11.3c0,0.1-0.1,0.2-0.2,0.4
			c-1.1,0.2-2.1,0.2-3.2,0c0-0.1-0.1-0.2-0.2-0.4c1-3.6,1.6-7.4,1.6-11.3c0-0.5-0.4-0.8-0.8-0.8c-0.5,0-0.8,0.4-0.8,0.8
			c0,2.9-0.3,5.7-0.9,8.4c-0.6-2.7-1.1-5.7-1.3-8.9c0-0.5-0.4-0.8-0.9-0.7c-0.4,0-0.7,0.4-0.7,0.8v0c0.2,4.2,0.9,8,2.1,11.4
			c-2.4-1.2-4-4-4.3-7.2c-0.1-1.2-0.2-2.5-0.2-3.8c0-0.5-0.4-0.8-0.8-0.8s-0.8,0.4-0.8,0.8c0,1.3,0.1,2.6,0.2,3.9
			c0.4,4,2.6,7.3,5.7,8.7l-5,0c-0.5,0-0.8,0.4-0.8,0.8c0,0.5,0.4,0.8,0.8,0.8h17.8c0.5,0,0.8-0.4,0.8-0.8c0-0.5-0.4-0.8-0.8-0.8h-5
			C279.7,51.9,281.9,48.6,282.2,44.5L282.2,44.5z"/>
	</g>
	<g>
		<path class="st2" d="M255.8,44.5c0.1-1.3,0.2-2.6,0.2-3.9c0-0.5-0.4-0.8-0.8-0.8c-0.5,0-0.8,0.4-0.8,0.8c0,1.2,0,2.5-0.2,3.8
			c-0.3,3.3-1.9,6-4.3,7.2c1.2-3.4,1.9-7.3,2.1-11.4v0c0-0.4-0.3-0.8-0.7-0.8c-0.5,0-0.8,0.3-0.9,0.8c-0.2,3.2-0.7,6.2-1.4,8.9
			c-0.6-2.7-0.9-5.5-0.9-8.4c0-0.5-0.4-0.8-0.8-0.8c-0.5,0-0.8,0.4-0.8,0.8c0,3.9,0.5,7.7,1.6,11.3c0,0.1-0.1,0.2-0.2,0.4
			c-1.1,0.2-2.1,0.2-3.2,0c0-0.1-0.1-0.2-0.2-0.4c1-3.6,1.6-7.4,1.6-11.3c0-0.5-0.4-0.8-0.8-0.8c-0.5,0-0.8,0.4-0.8,0.8
			c0,2.9-0.3,5.7-0.9,8.4c-0.6-2.7-1.1-5.7-1.3-8.9c0-0.5-0.4-0.8-0.9-0.7c-0.4,0-0.7,0.4-0.7,0.8v0c0.2,4.2,0.9,8,2.1,11.4
			c-2.4-1.2-4-4-4.3-7.2c-0.1-1.2-0.2-2.5-0.2-3.8c0-0.5-0.4-0.8-0.8-0.8s-0.8,0.4-0.8,0.8c0,1.3,0.1,2.6,0.2,3.9
			c0.4,4,2.6,7.3,5.7,8.7l-5,0c-0.5,0-0.8,0.4-0.8,0.8c0,0.5,0.4,0.8,0.8,0.8h17.8c0.5,0,0.8-0.4,0.8-0.8c0-0.5-0.4-0.8-0.8-0.8h-5
			C253.3,51.9,255.4,48.6,255.8,44.5L255.8,44.5z"/>
	</g>
</g>
<g>
	<g>
		<path class="st0" d="M226.8,45c0.1-1.3,0.2-2.6,0.2-3.9c0-0.5-0.4-0.8-0.8-0.8s-0.8,0.4-0.8,0.8c0,1.2,0,2.5-0.2,3.8
			c-0.3,3.3-1.9,6-4.3,7.2c1.2-3.4,1.9-7.3,2.1-11.4v0c0-0.4-0.3-0.8-0.7-0.8c-0.5,0-0.8,0.3-0.9,0.8c-0.2,3.2-0.7,6.2-1.4,8.9
			c-0.6-2.7-0.9-5.5-0.9-8.4c0-0.5-0.4-0.8-0.8-0.8s-0.8,0.4-0.8,0.8c0,3.9,0.5,7.7,1.6,11.3c0,0.1-0.1,0.2-0.2,0.4
			c-1.1,0.2-2.1,0.2-3.2,0c0-0.1-0.1-0.2-0.2-0.4c1-3.6,1.6-7.4,1.6-11.3c0-0.5-0.4-0.8-0.8-0.8s-0.8,0.4-0.8,0.8
			c0,2.9-0.3,5.7-0.9,8.4c-0.6-2.7-1.1-5.7-1.3-8.9c0-0.5-0.4-0.8-0.9-0.7c-0.4,0-0.7,0.4-0.7,0.8v0c0.2,4.2,0.9,8,2.1,11.4
			c-2.4-1.2-4-4-4.3-7.2c-0.1-1.2-0.2-2.5-0.2-3.8c0-0.5-0.4-0.8-0.8-0.8s-0.8,0.4-0.8,0.8c0,1.3,0.1,2.6,0.2,3.9
			c0.4,4,2.6,7.3,5.7,8.7l-5,0c-0.5,0-0.8,0.4-0.8,0.8s0.4,0.8,0.8,0.8h17.8c0.5,0,0.8-0.4,0.8-0.8s-0.4-0.8-0.8-0.8h-5
			C224.2,52.4,226.4,49,226.8,45L226.8,45z"/>
	</g>
	<g>
		<path class="st1" d="M239.8,52.8c0.1-1.3,0.2-2.6,0.2-3.9c0-0.5-0.4-0.8-0.8-0.8s-0.8,0.4-0.8,0.8c0,1.2,0,2.5-0.2,3.8
			c-0.3,3.3-1.9,6-4.3,7.2c1.2-3.4,1.9-7.3,2.1-11.4v0c0-0.4-0.3-0.8-0.7-0.8c-0.5,0-0.8,0.3-0.9,0.8c-0.2,3.2-0.7,6.2-1.4,8.9
			c-0.6-2.7-0.9-5.5-0.9-8.4c0-0.5-0.4-0.8-0.8-0.8s-0.8,0.4-0.8,0.8c0,3.9,0.5,7.7,1.6,11.3c0,0.1-0.1,0.2-0.2,0.4
			c-1.1,0.2-2.1,0.2-3.2,0c0-0.1-0.1-0.2-0.2-0.4c1-3.6,1.6-7.4,1.6-11.3c0-0.5-0.4-0.8-0.8-0.8s-0.8,0.4-0.8,0.8
			c0,2.9-0.3,5.7-0.9,8.4c-0.6-2.7-1.1-5.7-1.3-8.9c0-0.5-0.4-0.8-0.9-0.7c-0.4,0-0.7,0.4-0.7,0.8v0c0.2,4.2,0.9,8,2.1,11.4
			c-2.4-1.2-4-4-4.3-7.2c-0.1-1.2-0.2-2.5-0.2-3.8c0-0.5-0.4-0.8-0.8-0.8s-0.8,0.4-0.8,0.8c0,1.3,0.1,2.6,0.2,3.9
			c0.4,4,2.6,7.3,5.7,8.7l-5,0c-0.5,0-0.8,0.4-0.8,0.8s0.4,0.8,0.8,0.8h17.8c0.5,0,0.8-0.4,0.8-0.8s-0.4-0.8-0.8-0.8h-5
			C237.3,60.2,239.5,56.8,239.8,52.8L239.8,52.8z"/>
	</g>
	<g>
		<path class="st2" d="M213.4,52.8c0.1-1.3,0.2-2.6,0.2-3.9c0-0.5-0.4-0.8-0.8-0.8s-0.8,0.4-0.8,0.8c0,1.2,0,2.5-0.2,3.8
			c-0.3,3.3-1.9,6-4.3,7.2c1.2-3.4,1.9-7.3,2.1-11.4v0c0-0.4-0.3-0.8-0.7-0.8c-0.5,0-0.8,0.3-0.9,0.8c-0.2,3.2-0.7,6.2-1.4,8.9
			c-0.6-2.7-0.9-5.5-0.9-8.4c0-0.5-0.4-0.8-0.8-0.8s-0.8,0.4-0.8,0.8c0,3.9,0.5,7.7,1.6,11.3c0,0.1-0.1,0.2-0.2,0.4
			c-1.1,0.2-2.1,0.2-3.2,0c0-0.1-0.1-0.2-0.2-0.4c1-3.6,1.6-7.4,1.6-11.3c0-0.5-0.4-0.8-0.8-0.8s-0.8,0.4-0.8,0.8
			c0,2.9-0.3,5.7-0.9,8.4c-0.6-2.7-1.1-5.7-1.3-8.9c0-0.5-0.4-0.8-0.9-0.7c-0.4,0-0.7,0.4-0.7,0.8v0c0.2,4.2,0.9,8,2.1,11.4
			c-2.4-1.2-4-4-4.3-7.2c-0.1-1.2-0.2-2.5-0.2-3.8c0-0.5-0.4-0.8-0.8-0.8s-0.8,0.4-0.8,0.8c0,1.3,0.1,2.6,0.2,3.9
			c0.4,4,2.6,7.3,5.7,8.7l-5,0c-0.5,0-0.8,0.4-0.8,0.8s0.4,0.8,0.8,0.8h17.8c0.5,0,0.8-0.4,0.8-0.8s-0.4-0.8-0.8-0.8h-5
			C210.9,60.2,213.1,56.8,213.4,52.8L213.4,52.8z"/>
	</g>
</g>
<g>
	<g>
		<path class="st0" d="M356.2,43.6c0.1-1.3,0.2-2.6,0.2-3.9c0-0.5-0.4-0.8-0.8-0.8c-0.5,0-0.8,0.4-0.8,0.8c0,1.2,0,2.5-0.2,3.8
			c-0.3,3.3-1.9,6-4.3,7.2c1.2-3.4,1.9-7.3,2.1-11.4v0c0-0.4-0.3-0.8-0.7-0.8c-0.5,0-0.8,0.3-0.9,0.8c-0.2,3.2-0.7,6.2-1.4,8.9
			c-0.6-2.7-0.9-5.5-0.9-8.4c0-0.5-0.4-0.8-0.8-0.8c-0.5,0-0.8,0.4-0.8,0.8c0,3.9,0.5,7.7,1.6,11.3c0,0.1-0.1,0.2-0.2,0.4
			c-1.1,0.2-2.1,0.2-3.2,0c0-0.1-0.1-0.2-0.2-0.4c1-3.6,1.6-7.4,1.6-11.3c0-0.5-0.4-0.8-0.8-0.8c-0.5,0-0.8,0.4-0.8,0.8
			c0,2.9-0.3,5.7-0.9,8.4c-0.6-2.7-1.1-5.7-1.3-8.9c0-0.5-0.4-0.8-0.9-0.7c-0.4,0-0.7,0.4-0.7,0.8v0c0.2,4.2,0.9,8,2.1,11.4
			c-2.4-1.2-4-4-4.3-7.2c-0.1-1.2-0.2-2.5-0.2-3.8c0-0.5-0.4-0.8-0.8-0.8c-0.5,0-0.8,0.4-0.8,0.8c0,1.3,0.1,2.6,0.2,3.9
			c0.4,4,2.6,7.3,5.7,8.7l-5,0c-0.5,0-0.8,0.4-0.8,0.8s0.4,0.8,0.8,0.8h17.8c0.5,0,0.8-0.4,0.8-0.8s-0.4-0.8-0.8-0.8h-5
			C353.6,51,355.8,47.6,356.2,43.6L356.2,43.6z"/>
	</g>
	<g>
		<path class="st1" d="M369.2,51.4c0.1-1.3,0.2-2.6,0.2-3.9c0-0.5-0.4-0.8-0.8-0.8s-0.8,0.4-0.8,0.8c0,1.2,0,2.5-0.2,3.8
			c-0.3,3.3-1.9,6-4.3,7.2c1.2-3.4,1.9-7.3,2.1-11.4v0c0-0.4-0.3-0.8-0.7-0.8c-0.5,0-0.8,0.3-0.9,0.8c-0.2,3.2-0.7,6.2-1.4,8.9
			c-0.6-2.7-0.9-5.5-0.9-8.4c0-0.5-0.4-0.8-0.8-0.8s-0.8,0.4-0.8,0.8c0,3.9,0.5,7.7,1.6,11.3c0,0.1-0.1,0.2-0.2,0.4
			c-1.1,0.2-2.1,0.2-3.2,0c0-0.1-0.1-0.2-0.2-0.4c1-3.6,1.6-7.4,1.6-11.3c0-0.5-0.4-0.8-0.8-0.8s-0.8,0.4-0.8,0.8
			c0,2.9-0.3,5.7-0.9,8.4c-0.6-2.7-1.1-5.7-1.3-8.9c0-0.5-0.4-0.8-0.9-0.7c-0.4,0-0.7,0.4-0.7,0.8v0c0.2,4.2,0.9,8,2.1,11.4
			c-2.4-1.2-4-4-4.3-7.2c-0.1-1.2-0.2-2.5-0.2-3.8c0-0.5-0.4-0.8-0.8-0.8c-0.5,0-0.8,0.4-0.8,0.8c0,1.3,0.1,2.6,0.2,3.9
			c0.4,4,2.6,7.3,5.7,8.7l-5,0c-0.5,0-0.8,0.4-0.8,0.8s0.4,0.8,0.8,0.8h17.8c0.5,0,0.8-0.4,0.8-0.8s-0.4-0.8-0.8-0.8h-5
			C366.7,58.8,368.9,55.5,369.2,51.4L369.2,51.4z"/>
	</g>
	<g>
		<path class="st2" d="M342.8,51.4c0.1-1.3,0.2-2.6,0.2-3.9c0-0.5-0.4-0.8-0.8-0.8c-0.5,0-0.8,0.4-0.8,0.8c0,1.2,0,2.5-0.2,3.8
			c-0.3,3.3-1.9,6-4.3,7.2c1.2-3.4,1.9-7.3,2.1-11.4v0c0-0.4-0.3-0.8-0.7-0.8c-0.5,0-0.8,0.3-0.9,0.8c-0.2,3.2-0.7,6.2-1.4,8.9
			c-0.6-2.7-0.9-5.5-0.9-8.4c0-0.5-0.4-0.8-0.8-0.8c-0.5,0-0.8,0.4-0.8,0.8c0,3.9,0.5,7.7,1.6,11.3c0,0.1-0.1,0.2-0.2,0.4
			c-1.1,0.2-2.1,0.2-3.2,0c0-0.1-0.1-0.2-0.2-0.4c1-3.6,1.6-7.4,1.6-11.3c0-0.5-0.4-0.8-0.8-0.8c-0.5,0-0.8,0.4-0.8,0.8
			c0,2.9-0.3,5.7-0.9,8.4c-0.6-2.7-1.1-5.7-1.3-8.9c0-0.5-0.4-0.8-0.9-0.7c-0.4,0-0.7,0.4-0.7,0.8v0c0.2,4.2,0.9,8,2.1,11.4
			c-2.4-1.2-4-4-4.3-7.2c-0.1-1.2-0.2-2.5-0.2-3.8c0-0.5-0.4-0.8-0.8-0.8c-0.5,0-0.8,0.4-0.8,0.8c0,1.3,0.1,2.6,0.2,3.9
			c0.4,4,2.6,7.3,5.7,8.7l-5,0c-0.5,0-0.8,0.4-0.8,0.8s0.4,0.8,0.8,0.8h17.8c0.5,0,0.8-0.4,0.8-0.8s-0.4-0.8-0.8-0.8h-5
			C340.3,58.8,342.5,55.5,342.8,51.4L342.8,51.4z"/>
	</g>
</g>
<g>
	<g>
		<path class="st0" d="M400.7,61.5c0.1-1.3,0.2-2.6,0.2-3.9c0-0.5-0.4-0.8-0.8-0.8c-0.5,0-0.8,0.4-0.8,0.8c0,1.2,0,2.5-0.2,3.8
			c-0.3,3.3-1.9,6-4.3,7.2c1.2-3.4,1.9-7.3,2.1-11.4v0c0-0.4-0.3-0.8-0.7-0.8c-0.5,0-0.8,0.3-0.9,0.8c-0.2,3.2-0.7,6.2-1.4,8.9
			c-0.6-2.7-0.9-5.5-0.9-8.4c0-0.5-0.4-0.8-0.8-0.8c-0.5,0-0.8,0.4-0.8,0.8c0,3.9,0.5,7.7,1.6,11.3c0,0.1-0.1,0.2-0.2,0.4
			c-1.1,0.2-2.1,0.2-3.2,0c0-0.1-0.1-0.2-0.2-0.4c1-3.6,1.6-7.4,1.6-11.3c0-0.5-0.4-0.8-0.8-0.8c-0.5,0-0.8,0.4-0.8,0.8
			c0,2.9-0.3,5.7-0.9,8.4c-0.6-2.7-1.1-5.7-1.3-8.9c0-0.5-0.4-0.8-0.9-0.7c-0.4,0-0.7,0.4-0.7,0.8v0c0.2,4.2,0.9,8,2.1,11.4
			c-2.4-1.2-4-4-4.3-7.2c-0.1-1.2-0.2-2.5-0.2-3.8c0-0.5-0.4-0.8-0.8-0.8c-0.5,0-0.8,0.4-0.8,0.8c0,1.3,0.1,2.6,0.2,3.9
			c0.4,4,2.6,7.3,5.7,8.7l-5,0c-0.5,0-0.8,0.4-0.8,0.8c0,0.5,0.4,0.8,0.8,0.8h17.8c0.5,0,0.8-0.4,0.8-0.8c0-0.5-0.4-0.8-0.8-0.8h-5
			C398.2,68.9,400.4,65.6,400.7,61.5L400.7,61.5z"/>
	</g>
	<g>
		<path class="st1" d="M413.8,69.4c0.1-1.3,0.2-2.6,0.2-3.9c0-0.5-0.4-0.8-0.8-0.8c-0.5,0-0.8,0.4-0.8,0.8c0,1.2,0,2.5-0.2,3.8
			c-0.3,3.3-1.9,6-4.3,7.2c1.2-3.4,1.9-7.3,2.1-11.4v0c0-0.4-0.3-0.8-0.7-0.8c-0.5,0-0.8,0.3-0.9,0.8c-0.2,3.2-0.7,6.2-1.4,8.9
			c-0.6-2.7-0.9-5.5-0.9-8.4c0-0.5-0.4-0.8-0.8-0.8c-0.5,0-0.8,0.4-0.8,0.8c0,3.9,0.5,7.7,1.6,11.3c0,0.1-0.1,0.2-0.2,0.4
			c-1.1,0.2-2.1,0.2-3.2,0c0-0.1-0.1-0.2-0.2-0.4c1-3.6,1.6-7.4,1.6-11.3c0-0.5-0.4-0.8-0.8-0.8c-0.5,0-0.8,0.4-0.8,0.8
			c0,2.9-0.3,5.7-0.9,8.4c-0.6-2.7-1.1-5.7-1.3-8.9c0-0.5-0.4-0.8-0.9-0.7c-0.4,0-0.7,0.4-0.7,0.8v0c0.2,4.2,0.9,8,2.1,11.4
			c-2.4-1.2-4-4-4.3-7.2c-0.1-1.2-0.2-2.5-0.2-3.8c0-0.5-0.4-0.8-0.8-0.8c-0.5,0-0.8,0.4-0.8,0.8c0,1.3,0.1,2.6,0.2,3.9
			c0.4,4,2.6,7.3,5.7,8.7l-5,0c-0.5,0-0.8,0.4-0.8,0.8c0,0.5,0.4,0.8,0.8,0.8h17.8c0.5,0,0.8-0.4,0.8-0.8c0-0.5-0.4-0.8-0.8-0.8h-5
			C411.2,76.7,413.4,73.4,413.8,69.4L413.8,69.4z"/>
	</g>
	<g>
		<path class="st2" d="M387.4,69.4c0.1-1.3,0.2-2.6,0.2-3.9c0-0.5-0.4-0.8-0.8-0.8c-0.5,0-0.8,0.4-0.8,0.8c0,1.2,0,2.5-0.2,3.8
			c-0.3,3.3-1.9,6-4.3,7.2c1.2-3.4,1.9-7.3,2.1-11.4v0c0-0.4-0.3-0.8-0.7-0.8c-0.5,0-0.8,0.3-0.9,0.8c-0.2,3.2-0.7,6.2-1.4,8.9
			c-0.6-2.7-0.9-5.5-0.9-8.4c0-0.5-0.4-0.8-0.8-0.8c-0.5,0-0.8,0.4-0.8,0.8c0,3.9,0.5,7.7,1.6,11.3c0,0.1-0.1,0.2-0.2,0.4
			c-1.1,0.2-2.1,0.2-3.2,0c0-0.1-0.1-0.2-0.2-0.4c1-3.6,1.6-7.4,1.6-11.3c0-0.5-0.4-0.8-0.8-0.8c-0.5,0-0.8,0.4-0.8,0.8
			c0,2.9-0.3,5.7-0.9,8.4c-0.6-2.7-1.1-5.7-1.3-8.9c0-0.5-0.4-0.8-0.9-0.7c-0.4,0-0.7,0.4-0.7,0.8v0c0.2,4.2,0.9,8,2.1,11.4
			c-2.4-1.2-4-4-4.3-7.2c-0.1-1.2-0.2-2.5-0.2-3.8c0-0.5-0.4-0.8-0.8-0.8c-0.5,0-0.8,0.4-0.8,0.8c0,1.3,0.1,2.6,0.2,3.9
			c0.4,4,2.6,7.3,5.7,8.7l-5,0c-0.5,0-0.8,0.4-0.8,0.8c0,0.5,0.4,0.8,0.8,0.8h17.8c0.5,0,0.8-0.4,0.8-0.8c0-0.5-0.4-0.8-0.8-0.8h-5
			C384.8,76.7,387,73.4,387.4,69.4L387.4,69.4z"/>
	</g>
</g>
<g>
	<g>
		<path class="st0" d="M358.3,69.8c0.1-1.3,0.2-2.6,0.2-3.9c0-0.5-0.4-0.8-0.8-0.8c-0.5,0-0.8,0.4-0.8,0.8c0,1.2,0,2.5-0.2,3.8
			c-0.3,3.3-1.9,6-4.3,7.2c1.2-3.4,1.9-7.3,2.1-11.4v0c0-0.4-0.3-0.8-0.7-0.8c-0.5,0-0.8,0.3-0.9,0.8c-0.2,3.2-0.7,6.2-1.4,8.9
			c-0.6-2.7-0.9-5.5-0.9-8.4c0-0.5-0.4-0.8-0.8-0.8c-0.5,0-0.8,0.4-0.8,0.8c0,3.9,0.5,7.7,1.6,11.3c0,0.1-0.1,0.2-0.2,0.4
			c-1.1,0.2-2.1,0.2-3.2,0c0-0.1-0.1-0.2-0.2-0.4c1-3.6,1.6-7.4,1.6-11.3c0-0.5-0.4-0.8-0.8-0.8c-0.5,0-0.8,0.4-0.8,0.8
			c0,2.9-0.3,5.7-0.9,8.4c-0.6-2.7-1.1-5.7-1.3-8.9c0-0.5-0.4-0.8-0.9-0.7c-0.4,0-0.7,0.4-0.7,0.8v0c0.2,4.2,0.9,8,2.1,11.4
			c-2.4-1.2-4-4-4.3-7.2c-0.1-1.2-0.2-2.5-0.2-3.8c0-0.5-0.4-0.8-0.8-0.8s-0.8,0.4-0.8,0.8c0,1.3,0.1,2.6,0.2,3.9
			c0.4,4,2.6,7.3,5.7,8.7l-5,0c-0.5,0-0.8,0.4-0.8,0.8c0,0.5,0.4,0.8,0.8,0.8h17.8c0.5,0,0.8-0.4,0.8-0.8c0-0.5-0.4-0.8-0.8-0.8h-5
			C355.8,77.2,358,73.9,358.3,69.8L358.3,69.8z"/>
	</g>
	<g>
		<path class="st1" d="M371.4,77.6c0.1-1.3,0.2-2.6,0.2-3.9c0-0.5-0.4-0.8-0.8-0.8c-0.5,0-0.8,0.4-0.8,0.8c0,1.2,0,2.5-0.2,3.8
			c-0.3,3.3-1.9,6-4.3,7.2c1.2-3.4,1.9-7.3,2.1-11.4v0c0-0.4-0.3-0.8-0.7-0.8c-0.5,0-0.8,0.3-0.9,0.8c-0.2,3.2-0.7,6.2-1.4,8.9
			c-0.6-2.7-0.9-5.5-0.9-8.4c0-0.5-0.4-0.8-0.8-0.8c-0.5,0-0.8,0.4-0.8,0.8c0,3.9,0.5,7.7,1.6,11.3c0,0.1-0.1,0.2-0.2,0.4
			c-1.1,0.2-2.1,0.2-3.2,0c0-0.1-0.1-0.2-0.2-0.4c1-3.6,1.6-7.4,1.6-11.3c0-0.5-0.4-0.8-0.8-0.8c-0.5,0-0.8,0.4-0.8,0.8
			c0,2.9-0.3,5.7-0.9,8.4c-0.6-2.7-1.1-5.7-1.3-8.9c0-0.5-0.4-0.8-0.9-0.7c-0.4,0-0.7,0.4-0.7,0.8v0c0.2,4.2,0.9,8,2.1,11.4
			c-2.4-1.2-4-4-4.3-7.2c-0.1-1.2-0.2-2.5-0.2-3.8c0-0.5-0.4-0.8-0.8-0.8c-0.5,0-0.8,0.4-0.8,0.8c0,1.3,0.1,2.6,0.2,3.9
			c0.4,4,2.6,7.3,5.7,8.7l-5,0c-0.5,0-0.8,0.4-0.8,0.8c0,0.5,0.4,0.8,0.8,0.8h17.8c0.5,0,0.8-0.4,0.8-0.8c0-0.5-0.4-0.8-0.8-0.8h-5
			C368.8,85,371,81.7,371.4,77.6L371.4,77.6z"/>
	</g>
	<g>
		<path class="st2" d="M345,77.6c0.1-1.3,0.2-2.6,0.2-3.9c0-0.5-0.4-0.8-0.8-0.8c-0.5,0-0.8,0.4-0.8,0.8c0,1.2,0,2.5-0.2,3.8
			c-0.3,3.3-1.9,6-4.3,7.2c1.2-3.4,1.9-7.3,2.1-11.4v0c0-0.4-0.3-0.8-0.7-0.8c-0.5,0-0.8,0.3-0.9,0.8c-0.2,3.2-0.7,6.2-1.4,8.9
			c-0.6-2.7-0.9-5.5-0.9-8.4c0-0.5-0.4-0.8-0.8-0.8c-0.5,0-0.8,0.4-0.8,0.8c0,3.9,0.5,7.7,1.6,11.3c0,0.1-0.1,0.2-0.2,0.4
			c-1.1,0.2-2.1,0.2-3.2,0c0-0.1-0.1-0.2-0.2-0.4c1-3.6,1.6-7.4,1.6-11.3c0-0.5-0.4-0.8-0.8-0.8c-0.5,0-0.8,0.4-0.8,0.8
			c0,2.9-0.3,5.7-0.9,8.4c-0.6-2.7-1.1-5.7-1.3-8.9c0-0.5-0.4-0.8-0.9-0.7c-0.4,0-0.7,0.4-0.7,0.8v0c0.2,4.2,0.9,8,2.1,11.4
			c-2.4-1.2-4-4-4.3-7.2c-0.1-1.2-0.2-2.5-0.2-3.8c0-0.5-0.4-0.8-0.8-0.8s-0.8,0.4-0.8,0.8c0,1.3,0.1,2.6,0.2,3.9
			c0.4,4,2.6,7.3,5.7,8.7l-5,0c-0.5,0-0.8,0.4-0.8,0.8c0,0.5,0.4,0.8,0.8,0.8h17.8c0.5,0,0.8-0.4,0.8-0.8c0-0.5-0.4-0.8-0.8-0.8h-5
			C342.4,85,344.6,81.7,345,77.6L345,77.6z"/>
	</g>
</g>
<g>
	<g>
		<path class="st0" d="M42.8,61.5c0.1-1.3,0.2-2.6,0.2-3.9c0-0.5-0.4-0.8-0.8-0.8c-0.5,0-0.8,0.4-0.8,0.8c0,1.2,0,2.5-0.2,3.8
			c-0.3,3.3-1.9,6-4.3,7.2c1.2-3.4,1.9-7.3,2.1-11.4v0c0-0.4-0.3-0.8-0.7-0.8c-0.5,0-0.8,0.3-0.9,0.8c-0.2,3.2-0.7,6.2-1.4,8.9
			c-0.6-2.7-0.9-5.5-0.9-8.4c0-0.5-0.4-0.8-0.8-0.8s-0.8,0.4-0.8,0.8c0,3.9,0.5,7.7,1.6,11.3c0,0.1-0.1,0.2-0.2,0.4
			c-1.1,0.2-2.1,0.2-3.2,0c0-0.1-0.1-0.2-0.2-0.4c1-3.6,1.6-7.4,1.6-11.3c0-0.5-0.4-0.8-0.8-0.8c-0.5,0-0.8,0.4-0.8,0.8
			c0,2.9-0.3,5.7-0.9,8.4c-0.6-2.7-1.1-5.7-1.3-8.9c0-0.5-0.4-0.8-0.9-0.7c-0.4,0-0.7,0.4-0.7,0.8v0c0.2,4.2,0.9,8,2.1,11.4
			c-2.4-1.2-4-4-4.3-7.2c-0.1-1.2-0.2-2.5-0.2-3.8c0-0.5-0.4-0.8-0.8-0.8c-0.5,0-0.8,0.4-0.8,0.8c0,1.3,0.1,2.6,0.2,3.9
			c0.4,4,2.6,7.3,5.7,8.7l-5,0c-0.5,0-0.8,0.4-0.8,0.8c0,0.5,0.4,0.8,0.8,0.8h17.8c0.5,0,0.8-0.4,0.8-0.8c0-0.5-0.4-0.8-0.8-0.8h-5
			C40.2,68.9,42.4,65.6,42.8,61.5L42.8,61.5z"/>
	</g>
	<g>
		<path class="st1" d="M55.8,69.4c0.1-1.3,0.2-2.6,0.2-3.9c0-0.5-0.4-0.8-0.8-0.8s-0.8,0.4-0.8,0.8c0,1.2,0,2.5-0.2,3.8
			c-0.3,3.3-1.9,6-4.3,7.2c1.2-3.4,1.9-7.3,2.1-11.4v0c0-0.4-0.3-0.8-0.7-0.8c-0.5,0-0.8,0.3-0.9,0.8c-0.2,3.2-0.7,6.2-1.4,8.9
			c-0.6-2.7-0.9-5.5-0.9-8.4c0-0.5-0.4-0.8-0.8-0.8c-0.5,0-0.8,0.4-0.8,0.8c0,3.9,0.5,7.7,1.6,11.3c0,0.1-0.1,0.2-0.2,0.4
			c-1.1,0.2-2.1,0.2-3.2,0c0-0.1-0.1-0.2-0.2-0.4c1-3.6,1.6-7.4,1.6-11.3c0-0.5-0.4-0.8-0.8-0.8c-0.5,0-0.8,0.4-0.8,0.8
			c0,2.9-0.3,5.7-0.9,8.4c-0.6-2.7-1.1-5.7-1.3-8.9c0-0.5-0.4-0.8-0.9-0.7c-0.4,0-0.7,0.4-0.7,0.8v0c0.2,4.2,0.9,8,2.1,11.4
			c-2.4-1.2-4-4-4.3-7.2c-0.1-1.2-0.2-2.5-0.2-3.8c0-0.5-0.4-0.8-0.8-0.8s-0.8,0.4-0.8,0.8c0,1.3,0.1,2.6,0.2,3.9
			c0.4,4,2.6,7.3,5.7,8.7l-5,0c-0.5,0-0.8,0.4-0.8,0.8c0,0.5,0.4,0.8,0.8,0.8h17.8c0.5,0,0.8-0.4,0.8-0.8c0-0.5-0.4-0.8-0.8-0.8h-5
			C53.3,76.7,55.5,73.4,55.8,69.4L55.8,69.4z"/>
	</g>
	<g>
		<path class="st2" d="M29.4,69.4c0.1-1.3,0.2-2.6,0.2-3.9c0-0.5-0.4-0.8-0.8-0.8c-0.5,0-0.8,0.4-0.8,0.8c0,1.2,0,2.5-0.2,3.8
			c-0.3,3.3-1.9,6-4.3,7.2c1.2-3.4,1.9-7.3,2.1-11.4v0c0-0.4-0.3-0.8-0.7-0.8c-0.5,0-0.8,0.3-0.9,0.8c-0.2,3.2-0.7,6.2-1.4,8.9
			c-0.6-2.7-0.9-5.5-0.9-8.4c0-0.5-0.4-0.8-0.8-0.8c-0.5,0-0.8,0.4-0.8,0.8c0,3.9,0.5,7.7,1.6,11.3c0,0.1-0.1,0.2-0.2,0.4
			c-1.1,0.2-2.1,0.2-3.2,0c0-0.1-0.1-0.2-0.2-0.4c1-3.6,1.6-7.4,1.6-11.3c0-0.5-0.4-0.8-0.8-0.8c-0.5,0-0.8,0.4-0.8,0.8
			c0,2.9-0.3,5.7-0.9,8.4c-0.6-2.7-1.1-5.7-1.3-8.9c0-0.5-0.4-0.8-0.9-0.7c-0.4,0-0.7,0.4-0.7,0.8v0c0.2,4.2,0.9,8,2.1,11.4
			c-2.4-1.2-4-4-4.3-7.2c-0.1-1.2-0.2-2.5-0.2-3.8c0-0.5-0.4-0.8-0.8-0.8s-0.8,0.4-0.8,0.8c0,1.3,0.1,2.6,0.2,3.9
			c0.4,4,2.6,7.3,5.7,8.7l-5,0c-0.5,0-0.8,0.4-0.8,0.8c0,0.5,0.4,0.8,0.8,0.8h17.8c0.5,0,0.8-0.4,0.8-0.8c0-0.5-0.4-0.8-0.8-0.8h-5
			C26.9,76.7,29.1,73.4,29.4,69.4L29.4,69.4z"/>
	</g>
</g>
<g>
	<g>
		<path class="st0" d="M87.4,43.6c0.1-1.3,0.2-2.6,0.2-3.9c0-0.5-0.4-0.8-0.8-0.8c-0.5,0-0.8,0.4-0.8,0.8c0,1.2,0,2.5-0.2,3.8
			c-0.3,3.3-1.9,6-4.3,7.2c1.2-3.4,1.9-7.3,2.1-11.4v0c0-0.4-0.3-0.8-0.7-0.8c-0.5,0-0.8,0.3-0.9,0.8c-0.2,3.2-0.7,6.2-1.4,8.9
			c-0.6-2.7-0.9-5.5-0.9-8.4c0-0.5-0.4-0.8-0.8-0.8c-0.5,0-0.8,0.4-0.8,0.8c0,3.9,0.5,7.7,1.6,11.3c0,0.1-0.1,0.2-0.2,0.4
			c-1.1,0.2-2.1,0.2-3.2,0c0-0.1-0.1-0.2-0.2-0.4c1-3.6,1.6-7.4,1.6-11.3c0-0.5-0.4-0.8-0.8-0.8c-0.5,0-0.8,0.4-0.8,0.8
			c0,2.9-0.3,5.7-0.9,8.4c-0.6-2.7-1.1-5.7-1.3-8.9c0-0.5-0.4-0.8-0.9-0.7c-0.4,0-0.7,0.4-0.7,0.8v0c0.2,4.2,0.9,8,2.1,11.4
			c-2.4-1.2-4-4-4.3-7.2c-0.1-1.2-0.2-2.5-0.2-3.8c0-0.5-0.4-0.8-0.8-0.8s-0.8,0.4-0.8,0.8c0,1.3,0.1,2.6,0.2,3.9
			c0.4,4,2.6,7.3,5.7,8.7l-5,0c-0.5,0-0.8,0.4-0.8,0.8s0.4,0.8,0.8,0.8h17.8c0.5,0,0.8-0.4,0.8-0.8s-0.4-0.8-0.8-0.8h-5
			C84.9,51,87.1,47.6,87.4,43.6L87.4,43.6z"/>
	</g>
	<g>
		<path class="st1" d="M100.5,51.4c0.1-1.3,0.2-2.6,0.2-3.9c0-0.5-0.4-0.8-0.8-0.8c-0.5,0-0.8,0.4-0.8,0.8c0,1.2,0,2.5-0.2,3.8
			c-0.3,3.3-1.9,6-4.3,7.2c1.2-3.4,1.9-7.3,2.1-11.4v0c0-0.4-0.3-0.8-0.7-0.8c-0.5,0-0.8,0.3-0.9,0.8c-0.2,3.2-0.7,6.2-1.4,8.9
			c-0.6-2.7-0.9-5.5-0.9-8.4c0-0.5-0.4-0.8-0.8-0.8c-0.5,0-0.8,0.4-0.8,0.8c0,3.9,0.5,7.7,1.6,11.3c0,0.1-0.1,0.2-0.2,0.4
			c-1.1,0.2-2.1,0.2-3.2,0c0-0.1-0.1-0.2-0.2-0.4c1-3.6,1.6-7.4,1.6-11.3c0-0.5-0.4-0.8-0.8-0.8c-0.5,0-0.8,0.4-0.8,0.8
			c0,2.9-0.3,5.7-0.9,8.4c-0.6-2.7-1.1-5.7-1.3-8.9c0-0.5-0.4-0.8-0.9-0.7c-0.4,0-0.7,0.4-0.7,0.8v0c0.2,4.2,0.9,8,2.1,11.4
			c-2.4-1.2-4-4-4.3-7.2C83,50,83,48.8,83,47.5c0-0.5-0.4-0.8-0.8-0.8s-0.8,0.4-0.8,0.8c0,1.3,0.1,2.6,0.2,3.9
			c0.4,4,2.6,7.3,5.7,8.7l-5,0c-0.5,0-0.8,0.4-0.8,0.8s0.4,0.8,0.8,0.8h17.8c0.5,0,0.8-0.4,0.8-0.8s-0.4-0.8-0.8-0.8h-5
			C97.9,58.8,100.1,55.5,100.5,51.4L100.5,51.4z"/>
	</g>
	<g>
		<path class="st2" d="M74.1,51.4c0.1-1.3,0.2-2.6,0.2-3.9c0-0.5-0.4-0.8-0.8-0.8c-0.5,0-0.8,0.4-0.8,0.8c0,1.2,0,2.5-0.2,3.8
			c-0.3,3.3-1.9,6-4.3,7.2c1.2-3.4,1.9-7.3,2.1-11.4v0c0-0.4-0.3-0.8-0.7-0.8c-0.5,0-0.8,0.3-0.9,0.8c-0.2,3.2-0.7,6.2-1.4,8.9
			c-0.6-2.7-0.9-5.5-0.9-8.4c0-0.5-0.4-0.8-0.8-0.8c-0.5,0-0.8,0.4-0.8,0.8c0,3.9,0.5,7.7,1.6,11.3c0,0.1-0.1,0.2-0.2,0.4
			c-1.1,0.2-2.1,0.2-3.2,0c0-0.1-0.1-0.2-0.2-0.4c1-3.6,1.6-7.4,1.6-11.3c0-0.5-0.4-0.8-0.8-0.8c-0.5,0-0.8,0.4-0.8,0.8
			c0,2.9-0.3,5.7-0.9,8.4c-0.6-2.7-1.1-5.7-1.3-8.9c0-0.5-0.4-0.8-0.9-0.7c-0.4,0-0.7,0.4-0.7,0.8v0c0.2,4.2,0.9,8,2.1,11.4
			c-2.4-1.2-4-4-4.3-7.2c-0.1-1.2-0.2-2.5-0.2-3.8c0-0.5-0.4-0.8-0.8-0.8s-0.8,0.4-0.8,0.8c0,1.3,0.1,2.6,0.2,3.9
			c0.4,4,2.6,7.3,5.7,8.7l-5,0c-0.5,0-0.8,0.4-0.8,0.8s0.4,0.8,0.8,0.8h17.8c0.5,0,0.8-0.4,0.8-0.8s-0.4-0.8-0.8-0.8h-5
			C71.5,58.8,73.7,55.5,74.1,51.4L74.1,51.4z"/>
	</g>
</g>
<g>
	<g>
		<path class="st0" d="M132,61.5c0.1-1.3,0.2-2.6,0.2-3.9c0-0.5-0.4-0.8-0.8-0.8s-0.8,0.4-0.8,0.8c0,1.2,0,2.5-0.2,3.8
			c-0.3,3.3-1.9,6-4.3,7.2c1.2-3.4,1.9-7.3,2.1-11.4v0c0-0.4-0.3-0.8-0.7-0.8c-0.5,0-0.8,0.3-0.9,0.8c-0.2,3.2-0.7,6.2-1.4,8.9
			c-0.6-2.7-0.9-5.5-0.9-8.4c0-0.5-0.4-0.8-0.8-0.8c-0.5,0-0.8,0.4-0.8,0.8c0,3.9,0.5,7.7,1.6,11.3c0,0.1-0.1,0.2-0.2,0.4
			c-1.1,0.2-2.1,0.2-3.2,0c0-0.1-0.1-0.2-0.2-0.4c1-3.6,1.6-7.4,1.6-11.3c0-0.5-0.4-0.8-0.8-0.8c-0.5,0-0.8,0.4-0.8,0.8
			c0,2.9-0.3,5.7-0.9,8.4c-0.6-2.7-1.1-5.7-1.3-8.9c0-0.5-0.4-0.8-0.9-0.7c-0.4,0-0.7,0.4-0.7,0.8v0c0.2,4.2,0.9,8,2.1,11.4
			c-2.4-1.2-4-4-4.3-7.2c-0.1-1.2-0.2-2.5-0.2-3.8c0-0.5-0.4-0.8-0.8-0.8s-0.8,0.4-0.8,0.8c0,1.3,0.1,2.6,0.2,3.9
			c0.4,4,2.6,7.3,5.7,8.7l-5,0c-0.5,0-0.8,0.4-0.8,0.8c0,0.5,0.4,0.8,0.8,0.8h17.8c0.5,0,0.8-0.4,0.8-0.8c0-0.5-0.4-0.8-0.8-0.8h-5
			C129.4,68.9,131.6,65.6,132,61.5L132,61.5z"/>
	</g>
	<g>
		<path class="st1" d="M145.1,69.4c0.1-1.3,0.2-2.6,0.2-3.9c0-0.5-0.4-0.8-0.8-0.8c-0.5,0-0.8,0.4-0.8,0.8c0,1.2,0,2.5-0.2,3.8
			c-0.3,3.3-1.9,6-4.3,7.2c1.2-3.4,1.9-7.3,2.1-11.4v0c0-0.4-0.3-0.8-0.7-0.8c-0.5,0-0.8,0.3-0.9,0.8c-0.2,3.2-0.7,6.2-1.4,8.9
			c-0.6-2.7-0.9-5.5-0.9-8.4c0-0.5-0.4-0.8-0.8-0.8s-0.8,0.4-0.8,0.8c0,3.9,0.5,7.7,1.6,11.3c0,0.1-0.1,0.2-0.2,0.4
			c-1.1,0.2-2.1,0.2-3.2,0c0-0.1-0.1-0.2-0.2-0.4c1-3.6,1.6-7.4,1.6-11.3c0-0.5-0.4-0.8-0.8-0.8s-0.8,0.4-0.8,0.8
			c0,2.9-0.3,5.7-0.9,8.4c-0.6-2.7-1.1-5.7-1.3-8.9c0-0.5-0.4-0.8-0.9-0.7c-0.4,0-0.7,0.4-0.7,0.8v0c0.2,4.2,0.9,8,2.1,11.4
			c-2.4-1.2-4-4-4.3-7.2c-0.1-1.2-0.2-2.5-0.2-3.8c0-0.5-0.4-0.8-0.8-0.8s-0.8,0.4-0.8,0.8c0,1.3,0.1,2.6,0.2,3.9
			c0.4,4,2.6,7.3,5.7,8.7l-5,0c-0.5,0-0.8,0.4-0.8,0.8c0,0.5,0.4,0.8,0.8,0.8h17.8c0.5,0,0.8-0.4,0.8-0.8c0-0.5-0.4-0.8-0.8-0.8h-5
			C142.5,76.7,144.7,73.4,145.1,69.4L145.1,69.4z"/>
	</g>
	<g>
		<path class="st2" d="M118.7,69.4c0.1-1.3,0.2-2.6,0.2-3.9c0-0.5-0.4-0.8-0.8-0.8c-0.5,0-0.8,0.4-0.8,0.8c0,1.2,0,2.5-0.2,3.8
			c-0.3,3.3-1.9,6-4.3,7.2c1.2-3.4,1.9-7.3,2.1-11.4v0c0-0.4-0.3-0.8-0.7-0.8c-0.5,0-0.8,0.3-0.9,0.8c-0.2,3.2-0.7,6.2-1.4,8.9
			c-0.6-2.7-0.9-5.5-0.9-8.4c0-0.5-0.4-0.8-0.8-0.8c-0.5,0-0.8,0.4-0.8,0.8c0,3.9,0.5,7.7,1.6,11.3c0,0.1-0.1,0.2-0.2,0.4
			c-1.1,0.2-2.1,0.2-3.2,0c0-0.1-0.1-0.2-0.2-0.4c1-3.6,1.6-7.4,1.6-11.3c0-0.5-0.4-0.8-0.8-0.8c-0.5,0-0.8,0.4-0.8,0.8
			c0,2.9-0.3,5.7-0.9,8.4c-0.6-2.7-1.1-5.7-1.3-8.9c0-0.5-0.4-0.8-0.9-0.7c-0.4,0-0.7,0.4-0.7,0.8v0c0.2,4.2,0.9,8,2.1,11.4
			c-2.4-1.2-4-4-4.3-7.2c-0.1-1.2-0.2-2.5-0.2-3.8c0-0.5-0.4-0.8-0.8-0.8s-0.8,0.4-0.8,0.8c0,1.3,0.1,2.6,0.2,3.9
			c0.4,4,2.6,7.3,5.7,8.7l-5,0c-0.5,0-0.8,0.4-0.8,0.8c0,0.5,0.4,0.8,0.8,0.8h17.8c0.5,0,0.8-0.4,0.8-0.8c0-0.5-0.4-0.8-0.8-0.8h-5
			C116.1,76.7,118.3,73.4,118.7,69.4L118.7,69.4z"/>
	</g>
</g>
<g>
	<g id="XMLID_2_">
		<g>
			<path d="M141.7,49.2l3.7,8.7l-0.1,0.3c-0.7,4-4.2,5.3-6,5.5l-0.5,0l-0.4-0.3c-2.6-2.1-7.3-2.4-9.2-2.4c-0.2,0-0.4,0-0.6,0
				c-0.9,4.2-5.4,10.8-7.4,12.8c-1.1,1.1-0.6,4,0,6c0.6-0.2,1.2-0.2,1.7-0.2c3.9,0,5.1,3.8,5.3,5.8l0.1,1.3h-10.9l-0.3-0.2
				c-6.5-4.5-7-14.5-6.9-18.8c-3.9,1.7-8,2.6-12.2,2.6c-8,0-14.1-3.1-16.7-4.7c-1.6,4.6-3.4,7-7.2,9.4c-2.2,1.4-1.9,3.7-1.6,4.9
				c2.1-0.3,3.7,0.2,4.8,1.4c1.6,1.7,1.4,4.2,1.4,4.4l-0.1,1.1H66.6L64.7,73l0.5-0.4c2.9-2.3,3.1-6.5,2.5-10.2
				c-1.1,1.8-2.9,4.2-6,7.4c-4,4.1-8.4,5-11.6,5c-2.3,0-4-0.5-4.4-0.6c-0.4-0.1-1.4-0.4-2-1.3c-0.3-0.4-0.5-1.1-0.2-2
				c0.2-0.7,0.7-1.3,1.3-1.6c1.1-0.6,2.2-0.2,2.5-0.2c11.4,3.5,18.4-14.7,18.5-14.9c0.2-0.6,4.6-11.8,18.3-11.8
				c1.8,0,3.8,0.2,5.8,0.6c5.1,1,9.3,1.5,12.6,1.5c2.1,0,3.5-0.2,4.8-0.3c1-0.1,1.8-0.2,2.7-0.2c1.2,0,2.4,0.2,3.7,0.6
				c1.6,0.5,3.5,0.8,5.8,0.8c3.4,0,6.5-0.6,7.6-0.8c2.2-3.4,5.9-4.2,6-4.2l1.2-0.3l0.9,5.1c3.3,0.8,6.2,3.8,6.4,3.9L141.7,49.2z
				 M143,58.2l-3.2-7.6c-0.6-0.6-3.2-3-5.6-3.2l-0.9-0.1l-0.8-4.3c-1.1,0.5-2.6,1.4-3.6,3.1l-0.3,0.4l-0.5,0.1c-0.2,0-4.1,1-8.7,1
				c-2.5,0-4.7-0.3-6.5-0.9c-0.2-0.1-0.3-0.1-0.5-0.1c-0.8,1.5-2.2,5.1-1.1,10.5l-2.3,0.5c-1.1-5.3,0-9.2,0.9-11.3
				c-0.8,0-1.5,0.1-2.4,0.2c-0.8,0.1-1.8,0.2-3,0.3c-0.7,1.2-2.6,4.9-1.3,10.9l-2.3,0.5c-1.1-5.4,0-9.2,0.9-11.3
				c-1.6,0-3.4-0.2-5.4-0.4c-0.8,1.4-2.3,5-1.2,10.7L93,57.6c-1.1-5.5,0-9.4,1-11.5c-1.5-0.2-3-0.5-4.6-0.8
				c-0.3-0.1-0.6-0.1-0.9-0.2l0.1,0.1c-0.1,0.2-3.1,4.1-1.6,11.3L84.7,57c-1.3-6.2,0.4-10.3,1.4-12.2c-0.7-0.1-1.4-0.1-2-0.1
				c-1.2,0-2.3,0.1-3.4,0.3c-0.7,1.2-2.7,5-1.8,9.3l-2.3,0.5c-0.7-3.6,0.2-6.9,1.1-9c-6.2,2.2-8.8,7.3-9.4,8.8
				c1,2.5,5.1,14-0.9,19.4l1.4,10.4h7.8c-0.1-0.7-0.3-1.1-0.7-1.6c-0.7-0.7-1.9-0.9-3.5-0.4l-0.9,0.2l-0.4-0.9
				c-0.9-1.8-1.6-5.8,1.4-8.3l-1.7-0.9l1.1-2.1l2.9,1.4c1.3-1,2.2-2,3-3.3c-1.6-0.3-3.9-1-5.6-2.8l1.7-1.6c1.5,1.6,3.8,2,5,2.2
				c0.4-0.9,0.7-1.9,1-3l0.5-1.6l1.4,1c0.1,0,7,5.2,16.6,5.2c4.4,0,8.8-1.1,13-3.2l1.9-1l-0.2,2.2c0,0.1-1.3,13.4,5.5,18.5h7.4
				c-0.3-1-1-2.3-2.6-2.3c-0.6,0-1.3,0.1-2.1,0.5l-1.1,0.4l-0.4-1.1c-0.1-0.3-0.7-1.9-0.9-3.7l-2.1,0.2l-0.3-2.4l2.2-0.2
				c0-0.7,0.1-1.4,0.4-2l-4-1.2l0.7-2.3l4.7,1.4c2.3-2.7,6.2-9,6.4-11.9c-0.1-2.6,1.2-7.6,6.3-8.2l0.3,2.4c-3.1,0.4-3.9,3.1-4.2,4.7
				c0.1,0,0.2,0,0.4,0c0.2,0,0.5,0,0.7,0c1.6-1.7,3.4-2.6,5.4-2.7c3.3-0.1,6.2,2.1,7.2,3C142.8,58.7,142.9,58.5,143,58.2z
				 M139.6,61.3c0.3-0.1,0.9-0.2,1.4-0.5c-0.8-0.7-3-2.4-5.5-2.3c-0.7,0-1.5,0.2-2.1,0.6C135.5,59.3,137.8,60,139.6,61.3z
				 M66.9,58.6c-0.1-0.3-0.2-0.6-0.2-0.8c-2.7,5.5-9.6,16.8-20.2,13.6c-0.2-0.1-0.7-0.1-0.8,0.2c0,0.1,0,0.1,0,0.1
				c0.1,0.1,0.4,0.2,0.5,0.2l0.2,0C46.7,72,54,74.3,60,68.1C65.6,62.4,66.7,59.4,66.9,58.6z"/>
			<path class="st3" d="M139.7,50.6l3.2,7.6c-0.1,0.3-0.2,0.6-0.3,0.8c-1-0.9-3.9-3.1-7.2-3c-2,0.1-3.9,1-5.4,2.7
				c-0.3,0-0.5,0-0.7,0c-0.1,0-0.2,0-0.4,0c0.2-1.6,1.1-4.3,4.2-4.7l-0.3-2.4c-5.2,0.6-6.4,5.6-6.3,8.2c-0.2,2.9-4.1,9.2-6.4,11.9
				l-4.7-1.4l-0.7,2.3l4,1.2c-0.2,0.6-0.3,1.3-0.4,2l-2.2,0.2l0.3,2.4l2.1-0.2c0.3,1.8,0.8,3.4,0.9,3.7l0.4,1.1l1.1-0.4
				c0.8-0.3,1.5-0.5,2.1-0.5c1.6,0,2.3,1.3,2.6,2.3h-7.4c-6.8-5.1-5.5-18.3-5.5-18.5l0.2-2.2l-1.9,1c-4.2,2.1-8.5,3.2-13,3.2
				c-9.7,0-16.5-5.1-16.6-5.2l-1.4-1l-0.5,1.6c-0.3,1.1-0.7,2.1-1,3c-1.2-0.1-3.4-0.6-5-2.2L72,65.8c1.7,1.8,4,2.5,5.6,2.8
				c-0.8,1.3-1.7,2.3-3,3.3l-2.9-1.4l-1.1,2.1l1.7,0.9c-3.1,2.5-2.3,6.5-1.4,8.3l0.4,0.9l0.9-0.2c1.7-0.4,2.9-0.3,3.5,0.4
				c0.4,0.4,0.6,0.9,0.7,1.6h-7.8L67.3,74c5.9-5.4,1.9-16.9,0.9-19.4c0.6-1.5,3.3-6.5,9.4-8.8c-0.9,2.1-1.8,5.3-1.1,9l2.3-0.5
				C78,50,79.9,46.2,80.7,45c1.1-0.2,2.2-0.3,3.4-0.3c0.7,0,1.3,0,2,0.1c-1,1.8-2.6,6-1.4,12.2l2.3-0.5c-1.5-7.2,1.4-11.1,1.6-11.3
				l-0.1-0.1c0.3,0,0.6,0.1,0.9,0.2c1.6,0.3,3.2,0.6,4.6,0.8c-1,2.1-2.1,6-1,11.5l2.3-0.5c-1.2-5.6,0.4-9.3,1.2-10.7
				c2,0.2,3.8,0.4,5.4,0.4c-1,2.1-2.1,6-0.9,11.3l2.3-0.5c-1.2-6,0.6-9.8,1.3-10.9c1.2-0.1,2.1-0.2,3-0.3c0.9-0.1,1.7-0.2,2.4-0.2
				c-1,2.1-2,6-0.9,11.3l2.3-0.5c-1.1-5.4,0.3-9,1.1-10.5c0.2,0,0.3,0.1,0.5,0.1c1.8,0.6,4,0.9,6.5,0.9c4.5,0,8.5-1,8.7-1l0.5-0.1
				l0.3-0.4c1-1.7,2.5-2.6,3.6-3.1l0.8,4.3l0.9,0.1C136.5,47.6,139.1,50,139.7,50.6z M138.7,53.5l-2.2-2.5v2.2L138.7,53.5z"/>
			<path class="st3" d="M141,60.7c-0.5,0.3-1.1,0.5-1.4,0.5c-1.8-1.3-4.1-1.9-6.2-2.3c0.7-0.4,1.4-0.6,2.1-0.6
				C138,58.3,140.2,60,141,60.7z"/>
			<polygon points="136.5,51 138.7,53.5 136.5,53.2 			"/>
			<path class="st3" d="M66.7,57.8c0.1,0.3,0.2,0.5,0.2,0.8c-0.2,0.8-1.4,3.8-6.9,9.5c-6,6.2-13.3,3.9-13.6,3.8l-0.2,0
				c-0.1,0-0.4-0.1-0.5-0.2c0,0,0,0,0-0.1c0.1-0.3,0.6-0.2,0.8-0.2C57.1,74.6,64,63.3,66.7,57.8z"/>
		</g>
		<g>
		</g>
	</g>
</g>
<g>
	<g id="XMLID_3_">
		<g>
			<path d="M255.8,34.3l-2.8,6.5l0,0.3c0.5,3,3.1,4,4.5,4.1l0.4,0l0.3-0.2c1.9-1.6,5.5-1.8,6.9-1.8c0.2,0,0.3,0,0.4,0
				c0.7,3.1,4,8,5.5,9.6c0.8,0.8,0.4,3,0,4.5c-0.5-0.1-0.9-0.2-1.3-0.2c-2.9,0-3.8,2.8-3.9,4.4l-0.1,1h8.1l0.2-0.2
				c4.9-3.4,5.3-10.8,5.2-14.1c2.9,1.3,6,1.9,9.1,1.9c6,0,10.5-2.3,12.5-3.5c1.2,3.4,2.6,5.2,5.4,7c1.6,1.1,1.4,2.8,1.2,3.7
				c-1.6-0.2-2.8,0.1-3.6,1c-1.2,1.3-1,3.1-1,3.3l0.1,0.8h9.1l1.4-10.3l-0.4-0.3c-2.2-1.7-2.3-4.9-1.9-7.7c0.8,1.3,2.2,3.2,4.5,5.6
				c3,3.1,6.3,3.7,8.7,3.7c1.7,0,3-0.3,3.3-0.4c0.3-0.1,1.1-0.3,1.5-1c0.2-0.3,0.4-0.8,0.2-1.5c-0.2-0.5-0.5-0.9-0.9-1.2
				c-0.8-0.4-1.7-0.2-1.8-0.1c-8.5,2.6-13.8-11-13.8-11.2c-0.2-0.4-3.4-8.8-13.7-8.8c-1.4,0-2.8,0.2-4.3,0.5
				c-3.8,0.8-6.9,1.1-9.4,1.1c-1.6,0-2.6-0.1-3.6-0.3c-0.7-0.1-1.4-0.2-2-0.2c-0.9,0-1.8,0.1-2.8,0.5c-1.2,0.4-2.6,0.6-4.3,0.6
				c-2.5,0-4.9-0.5-5.7-0.6c-1.6-2.5-4.4-3.1-4.5-3.1l-0.9-0.2l-0.7,3.8c-2.5,0.6-4.7,2.8-4.8,2.9L255.8,34.3z M254.8,41l2.4-5.7
				c0.5-0.5,2.4-2.2,4.2-2.4l0.7-0.1l0.6-3.2c0.8,0.3,1.9,1,2.7,2.3l0.2,0.3l0.4,0.1c0.1,0,3.1,0.8,6.5,0.8c1.9,0,3.5-0.2,4.9-0.7
				c0.1,0,0.3-0.1,0.4-0.1c0.6,1.1,1.6,3.8,0.8,7.8l1.7,0.4c0.8-4,0-6.9-0.7-8.5c0.6,0,1.2,0.1,1.8,0.1c0.6,0.1,1.3,0.2,2.2,0.2
				c0.5,0.9,1.9,3.7,1,8.2l1.7,0.4c0.8-4,0-6.9-0.7-8.5c1.2,0,2.5-0.1,4-0.3c0.6,1,1.7,3.8,0.9,8l1.7,0.4c0.9-4.1,0-7-0.8-8.6
				c1.1-0.2,2.2-0.4,3.5-0.6c0.2,0,0.4-0.1,0.7-0.1l-0.1,0.1c0.1,0.1,2.3,3.1,1.2,8.5l1.7,0.4c1-4.6-0.3-7.7-1-9.1
				c0.5,0,1-0.1,1.5-0.1c0.9,0,1.8,0.1,2.5,0.2c0.5,0.9,2,3.7,1.4,7l1.7,0.3c0.5-2.7-0.1-5.1-0.8-6.7c4.6,1.7,6.6,5.5,7.1,6.6
				c-0.7,1.9-3.8,10.5,0.7,14.5l-1.1,7.8h-5.8c0.1-0.5,0.2-0.9,0.5-1.2c0.5-0.5,1.4-0.7,2.6-0.3l0.7,0.2l0.3-0.7
				c0.7-1.4,1.2-4.3-1.1-6.2l1.3-0.6l-0.8-1.6l-2.1,1.1c-0.9-0.7-1.7-1.5-2.2-2.5c1.2-0.2,2.9-0.8,4.2-2.1l-1.3-1.2
				c-1.1,1.2-2.8,1.5-3.7,1.6c-0.3-0.7-0.5-1.4-0.8-2.2l-0.4-1.2l-1,0.8c0,0-5.2,3.9-12.4,3.9c-3.3,0-6.6-0.8-9.7-2.4l-1.5-0.7
				l0.2,1.6c0,0.1,1,10-4.1,13.8h-5.6c0.2-0.8,0.8-1.7,2-1.7c0.4,0,1,0.1,1.5,0.3l0.8,0.3l0.3-0.9c0.1-0.2,0.5-1.4,0.7-2.7l1.6,0.2
				l0.2-1.8l-1.7-0.2c0-0.5-0.1-1-0.3-1.5l3-0.9l-0.5-1.7l-3.6,1c-1.7-2-4.6-6.7-4.8-8.9c0-2-0.9-5.7-4.7-6.2l-0.2,1.8
				c2.3,0.3,2.9,2.3,3.1,3.5c-0.1,0-0.2,0-0.3,0c-0.2,0-0.3,0-0.5,0c-1.2-1.3-2.5-2-4.1-2c-2.5-0.1-4.6,1.6-5.4,2.2
				C255,41.4,254.9,41.2,254.8,41z M257.3,43.3c-0.3-0.1-0.7-0.2-1.1-0.4c0.6-0.5,2.3-1.8,4.1-1.8c0.6,0,1.1,0.2,1.6,0.5
				C260.4,41.8,258.7,42.3,257.3,43.3z M311.7,41.3c0.1-0.2,0.1-0.4,0.2-0.6c2,4.1,7.2,12.5,15.1,10.2c0.1,0,0.5-0.1,0.6,0.1
				c0,0.1,0,0.1,0,0.1c0,0-0.3,0.1-0.4,0.1l-0.1,0c-0.2,0.1-5.7,1.8-10.2-2.8C312.8,44.1,311.9,41.9,311.7,41.3z"/>
			<path class="st3" d="M257.3,35.3l-2.4,5.7c0.1,0.2,0.1,0.4,0.2,0.6c0.8-0.7,2.9-2.3,5.4-2.2c1.5,0.1,2.9,0.7,4.1,2
				c0.2,0,0.4,0,0.5,0c0.1,0,0.2,0,0.3,0c-0.2-1.2-0.8-3.2-3.1-3.5l0.2-1.8c3.9,0.5,4.8,4.2,4.7,6.2c0.1,2.2,3,6.9,4.8,8.9l3.6-1
				l0.5,1.7l-3,0.9c0.2,0.5,0.2,1,0.3,1.5l1.7,0.2l-0.2,1.8l-1.6-0.2c-0.2,1.4-0.6,2.5-0.7,2.7l-0.3,0.9l-0.8-0.3
				c-0.6-0.2-1.1-0.3-1.5-0.3c-1.2,0-1.7,1-2,1.7h5.6c5.1-3.8,4.1-13.7,4.1-13.8l-0.2-1.6l1.5,0.7c3.1,1.6,6.4,2.4,9.7,2.4
				c7.2,0,12.4-3.8,12.4-3.9l1-0.8l0.4,1.2c0.2,0.8,0.5,1.6,0.8,2.2c0.9-0.1,2.6-0.5,3.7-1.6l1.3,1.2c-1.3,1.3-3,1.9-4.2,2.1
				c0.6,1,1.3,1.7,2.2,2.5l2.1-1.1l0.8,1.6l-1.3,0.6c2.3,1.9,1.7,4.8,1.1,6.2l-0.3,0.7l-0.7-0.2c-1.2-0.3-2.1-0.2-2.6,0.3
				c-0.3,0.3-0.4,0.7-0.5,1.2h5.8l1.1-7.8c-4.5-4.1-1.4-12.7-0.7-14.5c-0.5-1.1-2.4-4.9-7.1-6.6c0.7,1.6,1.4,4,0.8,6.7l-1.7-0.3
				c0.6-3.3-0.8-6.1-1.4-7c-0.8-0.1-1.6-0.2-2.5-0.2c-0.5,0-1,0-1.5,0.1c0.7,1.4,2,4.5,1,9.1l-1.7-0.4c1.1-5.4-1.1-8.3-1.2-8.5
				l0.1-0.1c-0.2,0-0.4,0.1-0.7,0.1c-1.2,0.2-2.4,0.4-3.5,0.6c0.7,1.6,1.6,4.5,0.8,8.6l-1.7-0.4c0.9-4.2-0.3-6.9-0.9-8
				c-1.5,0.2-2.8,0.3-4,0.3c0.7,1.6,1.5,4.5,0.7,8.5l-1.7-0.4c0.9-4.5-0.5-7.3-1-8.2c-0.9-0.1-1.6-0.1-2.2-0.2
				c-0.7-0.1-1.3-0.1-1.8-0.1c0.7,1.6,1.5,4.5,0.7,8.5l-1.7-0.4c0.8-4-0.2-6.7-0.8-7.8c-0.1,0-0.2,0.1-0.4,0.1
				c-1.4,0.4-3,0.7-4.9,0.7c-3.4,0-6.4-0.7-6.5-0.8l-0.4-0.1l-0.2-0.3c-0.7-1.3-1.9-2-2.7-2.3l-0.6,3.2l-0.7,0.1
				C259.7,33,257.7,34.8,257.3,35.3z M258,37.5l1.7-1.9v1.7L258,37.5z"/>
			<path class="st3" d="M256.3,42.9c0.4,0.2,0.8,0.3,1.1,0.4c1.3-1,3.1-1.5,4.7-1.7c-0.5-0.3-1-0.4-1.6-0.5
				C258.5,41.1,256.9,42.4,256.3,42.9z"/>
			<polygon points="259.7,35.6 258,37.5 259.7,37.2 			"/>
			<path class="st3" d="M311.9,40.7c-0.1,0.2-0.1,0.4-0.2,0.6c0.2,0.6,1,2.9,5.2,7.1c4.5,4.6,10,2.9,10.2,2.8l0.1,0
				c0.1,0,0.3-0.1,0.4-0.1c0,0,0,0,0-0.1c-0.1-0.2-0.4-0.2-0.6-0.1C319.1,53.2,313.9,44.8,311.9,40.7z"/>
		</g>
		<g>
		</g>
	</g>
</g>
<g>
	<g>
		<path class="st0" d="M89.6,69.8c0.1-1.3,0.2-2.6,0.2-3.9c0-0.5-0.4-0.8-0.8-0.8s-0.8,0.4-0.8,0.8c0,1.2,0,2.5-0.2,3.8
			c-0.3,3.3-1.9,6-4.3,7.2c1.2-3.4,1.9-7.3,2.1-11.4v0c0-0.4-0.3-0.8-0.7-0.8c-0.5,0-0.8,0.3-0.9,0.8c-0.2,3.2-0.7,6.2-1.4,8.9
			c-0.6-2.7-0.9-5.5-0.9-8.4c0-0.5-0.4-0.8-0.8-0.8c-0.5,0-0.8,0.4-0.8,0.8c0,3.9,0.5,7.7,1.6,11.3c0,0.1-0.1,0.2-0.2,0.4
			c-1.1,0.2-2.1,0.2-3.2,0c0-0.1-0.1-0.2-0.2-0.4c1-3.6,1.6-7.4,1.6-11.3c0-0.5-0.4-0.8-0.8-0.8c-0.5,0-0.8,0.4-0.8,0.8
			c0,2.9-0.3,5.7-0.9,8.4c-0.6-2.7-1.1-5.7-1.3-8.9c0-0.5-0.4-0.8-0.9-0.7c-0.4,0-0.7,0.4-0.7,0.8v0c0.2,4.2,0.9,8,2.1,11.4
			c-2.4-1.2-4-4-4.3-7.2c-0.1-1.2-0.2-2.5-0.2-3.8c0-0.5-0.4-0.8-0.8-0.8c-0.5,0-0.8,0.4-0.8,0.8c0,1.3,0.1,2.6,0.2,3.9
			c0.4,4,2.6,7.3,5.7,8.7l-5,0c-0.5,0-0.8,0.4-0.8,0.8c0,0.5,0.4,0.8,0.8,0.8H89c0.5,0,0.8-0.4,0.8-0.8c0-0.5-0.4-0.8-0.8-0.8h-5
			C87.1,77.2,89.2,73.9,89.6,69.8L89.6,69.8z"/>
	</g>
	<g>
		<path class="st1" d="M102.7,77.6c0.1-1.3,0.2-2.6,0.2-3.9c0-0.5-0.4-0.8-0.8-0.8s-0.8,0.4-0.8,0.8c0,1.2,0,2.5-0.2,3.8
			c-0.3,3.3-1.9,6-4.3,7.2c1.2-3.4,1.9-7.3,2.1-11.4v0c0-0.4-0.3-0.8-0.7-0.8c-0.5,0-0.8,0.3-0.9,0.8c-0.2,3.2-0.7,6.2-1.4,8.9
			c-0.6-2.7-0.9-5.5-0.9-8.4c0-0.5-0.4-0.8-0.8-0.8s-0.8,0.4-0.8,0.8c0,3.9,0.5,7.7,1.6,11.3c0,0.1-0.1,0.2-0.2,0.4
			c-1.1,0.2-2.1,0.2-3.2,0c0-0.1-0.1-0.2-0.2-0.4c1-3.6,1.6-7.4,1.6-11.3c0-0.5-0.4-0.8-0.8-0.8s-0.8,0.4-0.8,0.8
			c0,2.9-0.3,5.7-0.9,8.4c-0.6-2.7-1.1-5.7-1.3-8.9c0-0.5-0.4-0.8-0.9-0.7c-0.4,0-0.7,0.4-0.7,0.8v0c0.2,4.2,0.9,8,2.1,11.4
			c-2.4-1.2-4-4-4.3-7.2c-0.1-1.2-0.2-2.5-0.2-3.8c0-0.5-0.4-0.8-0.8-0.8c-0.5,0-0.8,0.4-0.8,0.8c0,1.3,0.1,2.6,0.2,3.9
			c0.4,4,2.6,7.3,5.7,8.7l-5,0c-0.5,0-0.8,0.4-0.8,0.8c0,0.5,0.4,0.8,0.8,0.8h17.8c0.5,0,0.8-0.4,0.8-0.8c0-0.5-0.4-0.8-0.8-0.8h-5
			C100.1,85,102.3,81.7,102.7,77.6L102.7,77.6z"/>
	</g>
	<g>
		<path class="st2" d="M76.3,77.6c0.1-1.3,0.2-2.6,0.2-3.9c0-0.5-0.4-0.8-0.8-0.8s-0.8,0.4-0.8,0.8c0,1.2,0,2.5-0.2,3.8
			c-0.3,3.3-1.9,6-4.3,7.2c1.2-3.4,1.9-7.3,2.1-11.4v0c0-0.4-0.3-0.8-0.7-0.8c-0.5,0-0.8,0.3-0.9,0.8c-0.2,3.2-0.7,6.2-1.4,8.9
			c-0.6-2.7-0.9-5.5-0.9-8.4c0-0.5-0.4-0.8-0.8-0.8c-0.5,0-0.8,0.4-0.8,0.8c0,3.9,0.5,7.7,1.6,11.3c0,0.1-0.1,0.2-0.2,0.4
			c-1.1,0.2-2.1,0.2-3.2,0c0-0.1-0.1-0.2-0.2-0.4c1-3.6,1.6-7.4,1.6-11.3c0-0.5-0.4-0.8-0.8-0.8c-0.5,0-0.8,0.4-0.8,0.8
			c0,2.9-0.3,5.7-0.9,8.4c-0.6-2.7-1.1-5.7-1.3-8.9c0-0.5-0.4-0.8-0.9-0.7c-0.4,0-0.7,0.4-0.7,0.8v0c0.2,4.2,0.9,8,2.1,11.4
			c-2.4-1.2-4-4-4.3-7.2c-0.1-1.2-0.2-2.5-0.2-3.8c0-0.5-0.4-0.8-0.8-0.8c-0.5,0-0.8,0.4-0.8,0.8c0,1.3,0.1,2.6,0.2,3.9
			c0.4,4,2.6,7.3,5.7,8.7l-5,0c-0.5,0-0.8,0.4-0.8,0.8c0,0.5,0.4,0.8,0.8,0.8h17.8c0.5,0,0.8-0.4,0.8-0.8c0-0.5-0.4-0.8-0.8-0.8h-5
			C73.7,85,75.9,81.7,76.3,77.6L76.3,77.6z"/>
	</g>
</g>
<g>
	<g>
		<path class="st0" d="M311.5,61.5c0.1-1.3,0.2-2.6,0.2-3.9c0-0.5-0.4-0.8-0.8-0.8c-0.5,0-0.8,0.4-0.8,0.8c0,1.2,0,2.5-0.2,3.8
			c-0.3,3.3-1.9,6-4.3,7.2c1.2-3.4,1.9-7.3,2.1-11.4v0c0-0.4-0.3-0.8-0.7-0.8c-0.5,0-0.8,0.3-0.9,0.8c-0.2,3.2-0.7,6.2-1.4,8.9
			c-0.6-2.7-0.9-5.5-0.9-8.4c0-0.5-0.4-0.8-0.8-0.8c-0.5,0-0.8,0.4-0.8,0.8c0,3.9,0.5,7.7,1.6,11.3c0,0.1-0.1,0.2-0.2,0.4
			c-1.1,0.2-2.1,0.2-3.2,0c0-0.1-0.1-0.2-0.2-0.4c1-3.6,1.6-7.4,1.6-11.3c0-0.5-0.4-0.8-0.8-0.8c-0.5,0-0.8,0.4-0.8,0.8
			c0,2.9-0.3,5.7-0.9,8.4c-0.6-2.7-1.1-5.7-1.3-8.9c0-0.5-0.4-0.8-0.9-0.7c-0.4,0-0.7,0.4-0.7,0.8v0c0.2,4.2,0.9,8,2.1,11.4
			c-2.4-1.2-4-4-4.3-7.2c-0.1-1.2-0.2-2.5-0.2-3.8c0-0.5-0.4-0.8-0.8-0.8c-0.5,0-0.8,0.4-0.8,0.8c0,1.3,0.1,2.6,0.2,3.9
			c0.4,4,2.6,7.3,5.7,8.7l-5,0c-0.5,0-0.8,0.4-0.8,0.8c0,0.5,0.4,0.8,0.8,0.8h17.8c0.5,0,0.8-0.4,0.8-0.8c0-0.5-0.4-0.8-0.8-0.8h-5
			C309,68.9,311.2,65.6,311.5,61.5L311.5,61.5z"/>
	</g>
	<g>
		<path class="st1" d="M324.6,69.4c0.1-1.3,0.2-2.6,0.2-3.9c0-0.5-0.4-0.8-0.8-0.8s-0.8,0.4-0.8,0.8c0,1.2,0,2.5-0.2,3.8
			c-0.3,3.3-1.9,6-4.3,7.2c1.2-3.4,1.9-7.3,2.1-11.4v0c0-0.4-0.3-0.8-0.7-0.8c-0.5,0-0.8,0.3-0.9,0.8c-0.2,3.2-0.7,6.2-1.4,8.9
			c-0.6-2.7-0.9-5.5-0.9-8.4c0-0.5-0.4-0.8-0.8-0.8s-0.8,0.4-0.8,0.8c0,3.9,0.5,7.7,1.6,11.3c0,0.1-0.1,0.2-0.2,0.4
			c-1.1,0.2-2.1,0.2-3.2,0c0-0.1-0.1-0.2-0.2-0.4c1-3.6,1.6-7.4,1.6-11.3c0-0.5-0.4-0.8-0.8-0.8s-0.8,0.4-0.8,0.8
			c0,2.9-0.3,5.7-0.9,8.4c-0.6-2.7-1.1-5.7-1.3-8.9c0-0.5-0.4-0.8-0.9-0.7c-0.4,0-0.7,0.4-0.7,0.8v0c0.2,4.2,0.9,8,2.1,11.4
			c-2.4-1.2-4-4-4.3-7.2c-0.1-1.2-0.2-2.5-0.2-3.8c0-0.5-0.4-0.8-0.8-0.8c-0.5,0-0.8,0.4-0.8,0.8c0,1.3,0.1,2.6,0.2,3.9
			c0.4,4,2.6,7.3,5.7,8.7l-5,0c-0.5,0-0.8,0.4-0.8,0.8c0,0.5,0.4,0.8,0.8,0.8H324c0.5,0,0.8-0.4,0.8-0.8c0-0.5-0.4-0.8-0.8-0.8h-5
			C322,76.7,324.2,73.4,324.6,69.4L324.6,69.4z"/>
	</g>
	<g>
		<path class="st2" d="M298.2,69.4c0.1-1.3,0.2-2.6,0.2-3.9c0-0.5-0.4-0.8-0.8-0.8c-0.5,0-0.8,0.4-0.8,0.8c0,1.2,0,2.5-0.2,3.8
			c-0.3,3.3-1.9,6-4.3,7.2c1.2-3.4,1.9-7.3,2.1-11.4v0c0-0.4-0.3-0.8-0.7-0.8c-0.5,0-0.8,0.3-0.9,0.8c-0.2,3.2-0.7,6.2-1.4,8.9
			c-0.6-2.7-0.9-5.5-0.9-8.4c0-0.5-0.4-0.8-0.8-0.8c-0.5,0-0.8,0.4-0.8,0.8c0,3.9,0.5,7.7,1.6,11.3c0,0.1-0.1,0.2-0.2,0.4
			c-1.1,0.2-2.1,0.2-3.2,0c0-0.1-0.1-0.2-0.2-0.4c1-3.6,1.6-7.4,1.6-11.3c0-0.5-0.4-0.8-0.8-0.8c-0.5,0-0.8,0.4-0.8,0.8
			c0,2.9-0.3,5.7-0.9,8.4c-0.6-2.7-1.1-5.7-1.3-8.9c0-0.5-0.4-0.8-0.9-0.7c-0.4,0-0.7,0.4-0.7,0.8v0c0.2,4.2,0.9,8,2.1,11.4
			c-2.4-1.2-4-4-4.3-7.2c-0.1-1.2-0.2-2.5-0.2-3.8c0-0.5-0.4-0.8-0.8-0.8c-0.5,0-0.8,0.4-0.8,0.8c0,1.3,0.1,2.6,0.2,3.9
			c0.4,4,2.6,7.3,5.7,8.7l-5,0c-0.5,0-0.8,0.4-0.8,0.8c0,0.5,0.4,0.8,0.8,0.8h17.8c0.5,0,0.8-0.4,0.8-0.8c0-0.5-0.4-0.8-0.8-0.8h-5
			C295.6,76.7,297.8,73.4,298.2,69.4L298.2,69.4z"/>
	</g>
</g>
</svg>
